<svg xmlns="http://www.w3.org/2000/svg" viewBox="0 0 1102.46 188.02" width="157" height="26.78" role="img" aria-label="Wingravity">
  <title>Wingravity</title>
  <desc>Wingravity wordmark. Geometry from the 2021 master artwork. Trademark of Wingravity; see TRADEMARK.md. Not covered by any code license.</desc>
  <metadata>Wingravity(R) is a registered trade mark.</metadata>
  <polygon fill="#18181b" points="0 83.05 40.31 83.05 52.71 135.09 64.89 98.11 64.89 83.05 95.45 83.05 110.07 135.09 122.03 83.05 162.33 83.05 134.65 188.02 97.44 188.02 81.5 140.41 65.55 188.02 27.68 188.02 0 83.05"/>
  <polygon fill="#34786f" points="178.5 38.98 223.46 38.98 223.46 69.1 178.5 69.1 178.5 38.98"/>
  <polygon fill="#18181b" points="181.82 113.39 162.33 113.39 170.08 83.05 223.46 83.05 223.46 188.02 181.82 188.02 181.82 113.39"/>
  <path fill="#18181b" d="M238.07,83.05h39l1.11,8a56.39,56.39,0,0,1,16.39-7.31,73.73,73.73,0,0,1,20.59-2.88q19.71,0,28.79,9.75T353,120.7V188H311.38V124.9q0-7.08-3.21-10.18t-10.75-3.1a24,24,0,0,0-9.52,2.1,25.79,25.79,0,0,0-8.19,5.43V188H238.07v-105Z"/>
  <path fill="#34786f" d="M416.57,188a248.51,248.51,0,0,1-26.35-1.44q-13.52-1.44-21-4.09V155.91a105.71,105.71,0,0,0,21,4.43,197.27,197.27,0,0,0,23.92,1.55q12.39,0,18.82-1.22t6.42-4.32a3.26,3.26,0,0,0-2.21-3.43c-1.48-.52-4.28-.77-8.42-.77H401.07q-16.4,0-25-5.21t-8.63-15.61A19.27,19.27,0,0,1,371.5,119q4.1-5.21,12.07-8.09-9.07-4.65-13.28-11.73t-4.21-17.94q0-39.42,53.81-39.42a110,110,0,0,1,12,.77q6.87.78,10.41,1.44h40.31V69.32h-14a19.48,19.48,0,0,1,4,12.4q0,16.61-9.74,25.8t-29.24,9.19a108.15,108.15,0,0,1-12.4-.89q-12,1.34-12,6.21a3,3,0,0,0,1.77,3,15.7,15.7,0,0,0,5.76.77h24.14q16.4,0,25.58,7.64t9.19,22q0,15.72-14.73,24.14T416.57,188Zm3.54-94.12q9.75,0,13.51-3.21t3.77-11.19q0-8-3.88-11.4t-13.4-3.43q-9.08,0-13.17,3.43t-4.1,11.4q0,7.53,3.88,11t13.39,3.43Z"/>
  <path fill="#34786f" d="M492.75,44.07h40.09l1.4,10.68a164,164,0,0,1,36.25-11.52V72.54c-17.5,3.43-27,6.74-36.1,11V149H492.75v-105Z"/>
  <path fill="#34786f" d="M604.81,151.26q-16.15,0-26.68-8.53T567.61,117.6q0-16.83,11.18-25.91t33.33-9.08h27.24v-2c0-14-37.68-12.48-58.91-9.46V41.86c24.06-3.08,62.54-5.48,84.27,10.52Q679,62.9,679,84.38V149H642.68l-2-8.41q-12,10.63-35.88,10.63ZM619,126.9q12.62,0,20.37-8.42V105.42H619.21c-4.73,0-8.19.88-10.41,2.65s-3.32,4.51-3.32,8.2q0,10.62,13.51,10.63Z"/>
  <polygon fill="#34786f" points="674.35 44.07 717.76 44.07 737.69 105.64 757.62 44.07 801.03 44.07 759.62 149.04 715.77 149.04 674.35 44.07"/>
  <polygon fill="#34786f" points="820.74 0 865.7 0 865.7 30.12 820.74 30.12 820.74 0"/>
  <polygon fill="#34786f" points="824.06 74.41 801.03 74.41 812.32 44.07 865.7 44.07 865.7 149.04 824.06 149.04 824.06 74.41"/>
  <path fill="#34786f" d="M929.7,151.26q-20.6,0-30.34-10.3t-9.75-29.12v-37H875.88V44.07h13.73V22.59l41.64-10V44.07h24.14L968.9,74.85H931.25v33.89q0,6.65,3.21,9.41t10.3,2.77a41.1,41.1,0,0,0,13.07-2.22v27.69q-11.75,4.88-28.13,4.87Z"/>
  <path fill="#34786f" d="M1006.57,188a106.4,106.4,0,0,1-15-.88,51.36,51.36,0,0,1-12.07-3.33V155.47a37.69,37.69,0,0,0,13.51,2.21q8.64,0,12.84-2.21t8.42-8.86L966.93,44.07h43.62l24.59,61.79,23.92-61.79h43.4l-38.75,95q-9.75,24.13-23.15,36.54t-34,12.4Z"/>
</svg>
